<svg width="40" height="40" viewBox="0 0 40 40" fill="none" xmlns="http://www.w3.org/2000/svg">
<g clip-path="url(#clip0_1_4035)">
<path d="M34.1795 27.288C34.9717 26.5898 35.7747 25.6156 36.3273 24.6824C36.8867 23.7376 37.1232 22.9478 37.0506 22.2676C36.9816 21.6236 36.6285 21.0957 36.0292 20.7408C35.4298 20.3858 34.7972 20.3297 34.1993 20.5793C33.8386 20.7298 33.4947 20.9864 33.162 21.3548C33.1068 20.879 33.0442 20.4743 32.9887 20.1573C33.9051 19.1325 33.9366 16.4332 33.693 14.9046C33.5203 13.8203 33.198 13.0613 32.7076 12.5843C32.2435 12.133 31.6343 11.952 30.9468 12.0618C30.2589 12.1711 29.7364 12.5321 29.4355 13.1059C29.1175 13.7116 29.047 14.5332 29.2198 15.6175C29.4862 17.2892 30.5003 20.1893 31.8638 20.5329C31.9212 20.879 31.9828 21.3133 32.0338 21.8193C31.6276 21.1485 31.1888 20.6983 30.7014 20.4521C30.1237 20.1603 29.4883 20.1701 28.8648 20.4804C28.2414 20.7911 27.8507 21.2919 27.7354 21.9291C27.6133 22.6023 27.7922 23.4074 28.2813 24.3901C28.729 25.2888 29.4071 26.2644 30.0956 26.9999C30.6785 27.6225 31.2104 28.0204 31.6862 28.1929C31.4936 29.0089 31.24 29.784 30.9306 30.503C30.8656 29.4249 30.6227 28.6476 30.1878 28.1288C29.7721 27.6326 29.1844 27.3912 28.4892 27.4299C27.7937 27.4693 27.237 27.7754 26.8797 28.3152C26.5019 28.8859 26.3484 29.6958 26.41 30.792C26.4832 32.0906 26.8821 33.849 27.519 34.9501C26.9096 35.4207 26.2367 35.8384 25.5091 36.1985C25.3352 35.6346 24.8091 35.2235 24.1886 35.2235H19.8753C19.5515 35.2235 19.2893 35.4857 19.2893 35.8094C19.2893 36.1332 19.5515 36.3954 19.8753 36.3954H24.1886C24.3043 36.3954 24.3986 36.4897 24.3986 36.6053V38.5399C24.3986 38.6558 24.3043 38.7501 24.1886 38.7501H15.9217C15.8057 38.7501 15.7114 38.6558 15.7114 38.5399V36.6053C15.7114 36.4897 15.8057 36.3954 15.9217 36.3954H17.1101C17.4335 36.3954 17.696 36.1332 17.696 35.8094C17.696 35.4857 17.4335 35.2235 17.1101 35.2235H15.9217C15.301 35.2235 14.7752 35.6346 14.6009 36.1989C13.874 35.839 13.2001 35.4213 12.5907 34.9504C13.2227 33.8527 13.6274 32.0784 13.7 30.792C13.762 29.6958 13.6082 28.8859 13.2307 28.3152C12.873 27.7754 12.3167 27.4693 11.6212 27.4299C10.9263 27.3915 10.3382 27.6326 9.92224 28.1288C9.48767 28.6476 9.24475 29.4249 9.17974 30.503C8.86999 29.7828 8.61639 29.0086 8.42382 28.1929C9.68237 27.7317 11.1582 25.7368 11.8287 24.3901C12.3182 23.4074 12.4967 22.6023 12.3749 21.9291C12.2596 21.2919 11.869 20.7908 11.2452 20.4804C10.6217 20.1701 9.98663 20.16 9.40863 20.4521C8.92156 20.6983 8.48242 21.1482 8.07653 21.8193C8.12749 21.3142 8.18884 20.8799 8.24621 20.5329C9.61004 20.189 10.6241 17.2892 10.8906 15.6172C11.0633 14.5332 10.9928 13.7113 10.6748 13.1056C10.3739 12.5321 9.85144 12.1711 9.16357 12.0615C8.4754 11.952 7.86687 12.1327 7.4027 12.5843C6.91228 13.0613 6.59002 13.8203 6.41698 14.9046C6.17345 16.4332 6.20519 19.1322 7.12163 20.1573C7.06579 20.4756 7.00353 20.8799 6.94799 21.3548C6.61535 20.9864 6.27172 20.7298 5.911 20.5793C5.31316 20.33 4.68053 20.3858 4.08116 20.7408C3.48179 21.0957 3.1287 21.6236 3.05973 22.2676C2.9868 22.9478 3.22361 23.7376 3.783 24.6824C4.33568 25.6156 5.13829 26.5895 5.93084 27.288C6.39928 27.7012 6.82744 27.9872 7.21319 28.1462C7.33465 28.7101 7.48235 29.2573 7.65661 29.785C7.34106 29.6763 7.04259 29.6235 6.75847 29.626C6.11089 29.633 5.55181 29.9339 5.14104 30.4966C4.73058 31.0594 4.6143 31.6838 4.80504 32.3027C5.00676 32.9564 5.53594 33.5887 6.42278 34.236C7.52111 35.0377 9.52032 36.0612 10.8915 36.0612C11.2504 36.0612 11.5662 35.9907 11.8116 35.8281C12.6255 36.4653 13.5413 37.0152 14.5399 37.4659V38.5399C14.5399 39.3019 15.1597 39.922 15.9217 39.922H24.1886C24.9507 39.922 25.5705 39.3019 25.5705 38.5399V37.4653C26.5699 37.014 27.4848 36.4644 28.2984 35.8278C28.5438 35.9907 28.8597 36.0612 29.2189 36.0612C30.59 36.0612 32.5892 35.0373 33.6875 34.236C34.5744 33.5887 35.1036 32.9564 35.3053 32.3024C35.496 31.6838 35.3801 31.0591 34.9693 30.4966C34.5585 29.9339 33.9991 29.633 33.3519 29.626C33.3439 29.626 33.3363 29.626 33.3284 29.626C33.051 29.626 32.7604 29.6788 32.454 29.784C32.6277 29.2567 32.776 28.7095 32.8974 28.1462C33.2829 27.9872 33.711 27.7012 34.1795 27.288ZM10.3477 30.6031C10.4639 28.5386 11.2565 28.5832 11.5552 28.6C11.8845 28.6186 12.1 28.7303 12.2535 28.9625C12.4116 29.2012 12.588 29.701 12.53 30.7261C12.475 31.6999 12.2306 32.8025 11.9126 33.6372C11.7951 33.4242 11.6523 33.2002 11.4814 32.9643C11.1634 32.5251 10.7734 32.0768 10.351 31.6578C10.3306 31.2895 10.3287 30.9349 10.3477 30.6031ZM8.82299 22.8932C9.74463 21.0423 10.4554 21.396 10.723 21.5293C10.9907 21.6627 11.7014 22.0167 10.7798 23.8679C10.3205 24.7895 9.65795 25.6816 9.06317 26.2977C8.99114 25.5317 8.729 24.6537 8.40643 23.8597C8.41619 23.8401 8.42504 23.8203 8.43298 23.7995C8.55322 23.4764 8.68444 23.1715 8.82299 22.8932ZM7.57452 15.0889C7.73595 14.0748 8.01458 13.624 8.21966 13.4242C8.37499 13.2734 8.55108 13.2014 8.77508 13.2014C8.83917 13.2014 8.90692 13.2072 8.97924 13.2188C9.30487 13.2707 9.50781 13.4037 9.6372 13.65C9.77026 13.9036 9.89477 14.4187 9.73303 15.4328C9.59295 16.3123 9.27832 17.32 8.89135 18.1288C8.46716 19.0147 8.12353 19.322 7.99688 19.3839C7.89556 19.2857 7.66454 18.8868 7.53698 17.913C7.4201 17.024 7.43444 15.9684 7.57452 15.0889ZM4.79131 24.0852C4.26793 23.2017 4.19438 22.6768 4.2249 22.3921C4.2545 22.1156 4.39427 21.9172 4.67809 21.7491C4.8499 21.6474 5.00615 21.5974 5.15965 21.5974C5.25975 21.5974 5.35863 21.6187 5.45995 21.6609C5.72423 21.771 6.14904 22.0878 6.67241 22.9716C7.12591 23.7379 7.52721 24.7145 7.74572 25.5839C7.98528 26.5364 7.91692 26.992 7.85925 27.1211C7.71825 27.1098 7.28582 26.9502 6.56591 26.2825C5.90856 25.673 5.2451 24.8515 4.79131 24.0852ZM9.61096 34.608C8.76653 34.3074 7.83269 33.8142 7.11339 33.2893C6.28392 32.6838 6.00927 32.2306 5.92473 31.9572C5.84294 31.6914 5.89299 31.454 6.0877 31.1872C6.18413 31.0548 6.36876 30.8021 6.79143 30.8021C7.13933 30.8021 7.64806 30.9733 8.40215 31.5236C9.12145 32.0485 9.87585 32.7873 10.4197 33.5002C11.0154 34.2808 11.1326 34.7264 11.1304 34.8677C10.9965 34.9131 10.5363 34.9373 9.61096 34.608ZM33.4379 22.9716C33.9613 22.0878 34.3861 21.771 34.6504 21.6609C34.7517 21.6187 34.8506 21.5974 34.9507 21.5974C35.1042 21.5974 35.2604 21.6474 35.4322 21.7494C35.7161 21.9172 35.8558 22.1156 35.8854 22.3921C35.9159 22.6768 35.8424 23.2017 35.319 24.0852C34.8652 24.8515 34.2018 25.673 33.5444 26.2825C32.8706 26.9075 32.4485 27.0872 32.2819 27.1168C32.2712 27.1168 32.2602 27.1165 32.2496 27.1168C32.1919 26.9834 32.1272 26.5275 32.3643 25.5839C32.5828 24.7145 32.9841 23.7379 33.4379 22.9716ZM30.377 15.4328C30.2156 14.4187 30.3401 13.9036 30.4731 13.65C30.6022 13.4037 30.8052 13.271 31.1311 13.2188C31.2034 13.2075 31.2712 13.2014 31.3349 13.2014C31.5589 13.2014 31.7353 13.2734 31.8904 13.4242C32.0957 13.624 32.3741 14.0748 32.5358 15.0889C32.6759 15.9684 32.6899 17.0243 32.5733 17.913C32.4455 18.8868 32.2145 19.2857 32.1131 19.3839C31.9865 19.322 31.6429 19.0147 31.219 18.1288C30.8317 17.32 30.5171 16.3123 30.377 15.4328ZM29.3305 23.8679C28.4086 22.0167 29.1197 21.6627 29.3873 21.5293C29.6549 21.3963 30.3657 21.0423 31.2873 22.8932C31.436 23.1916 31.5748 23.5194 31.7012 23.8661C31.3795 24.6592 31.1186 25.5348 31.0469 26.2989C31.0121 26.2632 30.9773 26.2269 30.941 26.1878C30.3294 25.5323 29.7276 24.665 29.3305 23.8679ZM27.8565 28.9625C28.0104 28.7303 28.2258 28.6186 28.5551 28.6C28.8536 28.5832 29.6461 28.5386 29.7627 30.6031C29.7813 30.9349 29.7798 31.2895 29.7593 31.6578C29.3366 32.0771 28.9466 32.5254 28.6289 32.9643C28.4577 33.2008 28.3146 33.4248 28.1971 33.6381C27.8779 32.8025 27.635 31.7021 27.5801 30.7261C27.5224 29.701 27.6988 29.2012 27.8565 28.9625ZM34.0226 31.1876C34.217 31.454 34.2674 31.6914 34.1853 31.9572C34.1011 32.2309 33.8261 32.6841 32.9966 33.2896C32.2773 33.8145 31.3438 34.3074 30.4991 34.608C29.5738 34.9376 29.1139 34.9131 28.9799 34.868C28.9778 34.7267 29.0949 34.2808 29.6907 33.5002C30.2345 32.7876 30.9886 32.0488 31.7079 31.5239C33.3784 30.3047 33.8462 30.9462 34.0226 31.1876Z" fill="#101828"/>
<path d="M24.1881 29.4156H15.9212C15.1592 29.4156 14.5391 30.0355 14.5391 30.7975V32.732C14.5391 33.494 15.1592 34.1138 15.9212 34.1138H24.1881C24.9502 34.1138 25.57 33.494 25.57 32.732V30.7975C25.57 30.0355 24.9502 29.4156 24.1881 29.4156ZM24.3981 32.732C24.3981 32.848 24.3038 32.942 24.1881 32.942H15.9212C15.8052 32.942 15.7109 32.848 15.7109 32.732V30.7975C15.7109 30.6815 15.8052 30.5875 15.9212 30.5875H24.1881C24.3038 30.5875 24.3981 30.6815 24.3981 30.7975V32.732Z" fill="#101828"/>
<path d="M12.3508 11.0446H14.5399V27.0801C14.5399 27.8421 15.16 28.4619 15.922 28.4619H24.1889C24.9509 28.4619 25.5708 27.8421 25.5708 27.0801V17.0074C25.5708 16.6839 25.3086 16.4215 24.9848 16.4215C24.6613 16.4215 24.3989 16.6839 24.3989 17.0074V27.0801C24.3989 27.196 24.3046 27.29 24.1889 27.29H15.922C15.806 27.29 15.7117 27.196 15.7117 27.0801V10.4586C15.7117 10.1352 15.4496 9.8727 15.1258 9.8727H12.3508C12.2312 9.8727 12.179 9.79397 12.1583 9.74697C12.1378 9.69997 12.1152 9.60812 12.1961 9.52023L15.6385 5.78578C15.8579 5.54805 15.8427 5.17726 15.6046 4.95784C15.3669 4.73842 14.9961 4.75368 14.7767 4.99171L11.3346 8.72616C10.9571 9.1357 10.8613 9.7073 11.085 10.2176C11.3086 10.7278 11.7936 11.0446 12.3508 11.0446Z" fill="#101828"/>
<path d="M17.5139 3.75093L19.9007 1.1615C19.955 1.1026 20.0209 1.09375 20.0551 1.09375C20.0896 1.09375 20.1555 1.1026 20.2098 1.1615L27.9143 9.52029C27.9952 9.60818 27.9729 9.70004 27.9521 9.74703C27.9317 9.79403 27.8792 9.87277 27.7599 9.87277H24.9846C24.6611 9.87277 24.3987 10.1349 24.3987 10.4587V14.2423C24.3987 14.5661 24.6611 14.8282 24.9846 14.8282C25.3084 14.8282 25.5705 14.5661 25.5705 14.2423V11.0446H27.7599C28.3168 11.0446 28.802 10.7276 29.0254 10.2173C29.2491 9.70706 29.1536 9.13577 28.7761 8.72591L21.0713 0.367128C20.8104 0.0842289 20.4402 -0.078125 20.0551 -0.078125C19.6702 -0.078125 19.3001 0.0842289 19.0391 0.367128L16.6521 2.95686C16.4329 3.19459 16.4479 3.56538 16.6859 3.7848C16.924 4.00392 17.2948 3.98896 17.5139 3.75093Z" fill="#101828"/>
</g>
<defs>
<clipPath id="clip0_1_4035">
<rect width="40" height="40" fill="white"/>
</clipPath>
</defs>
</svg>
