<svg width="40" height="40" viewBox="0 0 40 40" fill="none" xmlns="http://www.w3.org/2000/svg">
<path d="M20 30.625C25.8587 30.625 30.625 25.8587 30.625 20C30.625 14.1413 25.8587 9.375 20 9.375C14.1413 9.375 9.375 14.1413 9.375 20C9.375 25.8587 14.1413 30.625 20 30.625ZM20 10.625C25.1694 10.625 29.375 14.8306 29.375 20C29.375 25.1694 25.1694 29.375 20 29.375C14.8306 29.375 10.625 25.1694 10.625 20C10.625 14.8306 14.8306 10.625 20 10.625Z" fill="#101828"/>
<path d="M23.75 24.375H26.25C26.595 24.375 26.875 24.095 26.875 23.75V15.625C26.875 15.28 26.595 15 26.25 15H23.75C23.405 15 23.125 15.28 23.125 15.625V23.75C23.125 24.095 23.405 24.375 23.75 24.375ZM24.375 16.25H25.625V23.125H24.375V16.25Z" fill="#101828"/>
<path d="M18.75 24.375H21.25C21.595 24.375 21.875 24.095 21.875 23.75V17.5C21.875 17.155 21.595 16.875 21.25 16.875H18.75C18.405 16.875 18.125 17.155 18.125 17.5V23.75C18.125 24.095 18.405 24.375 18.75 24.375ZM19.375 18.125H20.625V23.125H19.375V18.125Z" fill="#101828"/>
<path d="M16.25 24.375C16.595 24.375 16.875 24.095 16.875 23.75V20C16.875 19.655 16.595 19.375 16.25 19.375H13.75C13.405 19.375 13.125 19.655 13.125 20V23.75C13.125 24.095 13.405 24.375 13.75 24.375H16.25ZM14.375 20.625H15.625V23.125H14.375V20.625Z" fill="#101828"/>
<path d="M7.42312 16.1125C7.30062 16.5375 6.99188 16.8675 6.59688 16.9956L4.92188 17.54C4.69 17.6156 4.52375 17.8181 4.49437 18.06C4.415 18.7231 4.375 19.3756 4.375 20C4.375 20.6243 4.415 21.2768 4.495 21.94C4.52375 22.1818 4.69062 22.3843 4.9225 22.46L6.5975 23.0043C6.9925 23.1325 7.30125 23.4631 7.42375 23.8881C7.48438 24.0981 7.55 24.3062 7.62 24.5125C7.765 24.94 7.7 25.4081 7.445 25.7643L6.44625 27.1606C6.30563 27.3575 6.29062 27.6175 6.40875 27.8293C7.04687 28.97 7.82563 30.0306 8.7225 30.9818C8.8925 31.1625 9.15188 31.2243 9.38438 31.1425L10.895 30.6118C11.2806 30.4768 11.7081 30.5531 12.0381 30.8156C12.2031 30.9468 12.3712 31.0743 12.5419 31.1975C12.8931 31.45 13.0994 31.865 13.0944 32.3075L13.0769 33.8331C13.0744 34.0781 13.2144 34.3018 13.4356 34.4062C14.6294 34.9687 15.895 35.3756 17.1962 35.6156C17.2331 35.6218 17.2706 35.625 17.3081 35.625C17.5125 35.625 17.7069 35.5243 17.8244 35.3518L18.6331 34.1656C18.8725 33.8143 19.2669 33.6275 19.6781 33.6206C19.8919 33.6262 20.1069 33.6262 20.3219 33.6206C20.7381 33.5975 21.1269 33.8143 21.3663 34.1656L22.1744 35.3518C22.3138 35.5568 22.56 35.66 22.8044 35.6143C24.1056 35.3743 25.3706 34.9675 26.565 34.405C26.7863 34.3006 26.9262 34.0768 26.9237 33.8325L26.9062 32.3068C26.9012 31.8643 27.1075 31.4493 27.4581 31.1968C27.6287 31.0737 27.7969 30.9468 27.9619 30.8156C28.2919 30.5531 28.7188 30.4756 29.1056 30.6118L30.6163 31.1425C30.8488 31.2237 31.1087 31.1618 31.2781 30.9818C32.175 30.0312 32.9531 28.9706 33.5912 27.8293C33.7094 27.6181 33.695 27.3575 33.5544 27.1606L32.5556 25.7643C32.3006 25.4081 32.235 24.94 32.3806 24.5125C32.4506 24.3062 32.5163 24.0981 32.5769 23.8881C32.6994 23.4631 33.0081 23.1331 33.4031 23.005L35.0781 22.4606C35.31 22.385 35.4762 22.1825 35.5056 21.9406C35.585 21.2768 35.625 20.6243 35.625 20C35.625 19.3756 35.585 18.7231 35.505 18.06C35.4762 17.8181 35.3094 17.6156 35.0775 17.54L33.4025 16.9956C33.0075 16.8675 32.6988 16.5368 32.5763 16.1118C32.5156 15.9018 32.45 15.6937 32.38 15.4875C32.235 15.06 32.3 14.5918 32.555 14.2356L33.5538 12.8393C33.6944 12.6425 33.7094 12.3825 33.5912 12.1706C32.9531 11.03 32.1744 9.96933 31.2775 9.01808C31.1081 8.83808 30.8475 8.77495 30.6156 8.85745L29.105 9.38808C28.72 9.52433 28.2925 9.44745 27.9619 9.18433C27.7969 9.05308 27.6287 8.92558 27.4581 8.80245C27.1069 8.54995 26.9006 8.13495 26.9056 7.69245L26.9231 6.16683C26.9256 5.92183 26.7856 5.69808 26.5644 5.5937C25.3706 5.0312 24.105 4.62433 22.8038 4.38433C22.5613 4.34058 22.3131 4.44308 22.1744 4.64683L21.3656 5.83308C21.1263 6.18433 20.74 6.37933 20.3206 6.37808C20.1069 6.37245 19.8919 6.37245 19.6769 6.37808C19.2475 6.38808 18.8719 6.18433 18.6325 5.83308L17.8244 4.64683C17.685 4.44245 17.4394 4.33933 17.1944 4.38433C15.8931 4.62433 14.6281 5.0312 13.4337 5.5937C13.2125 5.69808 13.0725 5.92183 13.075 6.1662L13.0925 7.69183C13.0975 8.13433 12.8913 8.54933 12.5406 8.80183C12.37 8.92495 12.2019 9.05183 12.0369 9.18308C11.7069 9.44558 11.2794 9.52183 10.8931 9.38683L9.3825 8.8562C9.14938 8.77433 8.89 8.83745 8.72063 9.01683C7.82375 9.96745 7.04562 11.0281 6.4075 12.1693C6.28937 12.3806 6.30375 12.6412 6.44437 12.8381L7.44313 14.2343C7.69813 14.5906 7.76312 15.0587 7.6175 15.4862C7.55 15.6943 7.48437 15.9025 7.42312 16.1125V16.1125ZM8.46187 13.5093L7.69687 12.44C8.17687 11.6331 8.73437 10.8737 9.35875 10.1737L10.48 10.5675C11.2744 10.8462 12.1475 10.6943 12.8163 10.1625C12.9656 10.0437 13.1175 9.9287 13.2719 9.81745C13.9525 9.32683 14.3531 8.52745 14.3431 7.6787L14.33 6.56058C15.1956 6.18245 16.0988 5.89183 17.0238 5.6937L17.5988 6.53808C18.0788 7.24245 18.8712 7.6462 19.7075 7.6287C19.9019 7.62433 20.0975 7.62433 20.29 7.6287C21.1363 7.65558 21.9194 7.24245 22.3988 6.53808L22.975 5.6937C23.9006 5.89183 24.8037 6.18245 25.6694 6.56058L25.6562 7.6787C25.6469 8.52745 26.0475 9.32683 26.7281 9.81745C26.8825 9.9287 27.0344 10.0437 27.1837 10.1625C27.8531 10.695 28.7263 10.8468 29.5206 10.5675L30.6419 10.1737C31.2669 10.8737 31.8238 11.6337 32.3038 12.44L31.5388 13.5087C31.05 14.1918 30.9225 15.0818 31.1975 15.89C31.2613 16.0781 31.3206 16.2675 31.3762 16.4593C31.6137 17.2831 32.2275 17.9281 33.0169 18.185L34.3069 18.6037C34.3519 19.0812 34.375 19.5493 34.375 20C34.375 20.4506 34.3519 20.9187 34.3062 21.3962L33.0169 21.815C32.2269 22.0712 31.6138 22.7162 31.3756 23.5406C31.3206 23.7325 31.2606 23.9218 31.1969 24.1093C30.9219 24.9168 31.05 25.8075 31.5381 26.4906L32.3025 27.56C31.8225 28.3668 31.265 29.1262 30.6406 29.8262L29.5194 29.4325C28.7237 29.1531 27.8519 29.305 27.1831 29.8375C27.0338 29.9562 26.8819 30.0712 26.7275 30.1825C26.0469 30.6731 25.6462 31.4725 25.6562 32.3212L25.6694 33.4393C24.8037 33.8175 23.9006 34.1081 22.9756 34.3062L22.4006 33.4618C21.9325 32.775 21.1713 32.3706 20.355 32.3706C20.3338 32.3706 20.3131 32.3706 20.2919 32.3712C20.0975 32.3756 19.9019 32.3756 19.7094 32.3712C18.8581 32.3518 18.08 32.7575 17.6006 33.4618L17.025 34.3062C16.0994 34.1081 15.1963 33.8175 14.3306 33.4393L14.3438 32.3212C14.3531 31.4725 13.9525 30.6731 13.2719 30.1825C13.1175 30.0712 12.9656 29.9562 12.8163 29.8375C12.1469 29.305 11.2738 29.1525 10.4794 29.4325L9.35812 29.8262C8.73312 29.1262 8.17625 28.3662 7.69625 27.56L8.46125 26.4912C8.95 25.8081 9.0775 24.9181 8.8025 24.11C8.73875 23.9218 8.67938 23.7325 8.62375 23.5406C8.38625 22.7168 7.7725 22.0718 6.98313 21.815L5.69313 21.3962C5.64813 20.9187 5.625 20.4506 5.625 20C5.625 19.5493 5.64812 19.0812 5.69375 18.6037L6.98375 18.185C7.77375 17.9281 8.38687 17.2831 8.62437 16.4593C8.67937 16.2675 8.73938 16.0781 8.80313 15.8906C9.07813 15.0831 8.95062 14.1925 8.46187 13.5093V13.5093Z" fill="#101828"/>
<path d="M38.5524 12.5319L37.3555 12.9306C34.4968 5.92187 27.6111 1.25 19.9999 1.25C12.1693 1.25 5.09426 6.18688 2.39551 13.5344L3.56863 13.965C6.08801 7.1075 12.6911 2.5 19.9999 2.5C27.0768 2.5 33.4811 6.82688 36.168 13.3269L34.8024 13.7819C34.5855 13.8544 34.4249 14.04 34.3849 14.265C34.3449 14.4906 34.4311 14.72 34.6099 14.8631L37.7349 17.3631C37.8474 17.4531 37.9849 17.5 38.1249 17.5C38.2005 17.5 38.2761 17.4869 38.348 17.4588C38.5549 17.3794 38.7049 17.1962 38.7411 16.9775L39.3661 13.2275C39.4024 13.0112 39.3224 12.7919 39.1555 12.6494C38.9886 12.5069 38.7599 12.4619 38.5524 12.5319V12.5319ZM37.6836 15.7212L36.2874 14.6044L37.963 14.0463L37.6836 15.7212Z" fill="#101828"/>
<path d="M1.35344 26.8662L2.48344 26.6781C5.24094 33.9062 12.2472 38.75 20.0003 38.75C27.8309 38.75 34.9059 33.8131 37.6047 26.4656L36.4316 26.035C33.9122 32.8925 27.3091 37.5 20.0003 37.5C12.8484 37.5 6.38282 33.0825 3.74719 26.4675L5.10282 26.2412C5.32157 26.205 5.50469 26.055 5.58407 25.8481C5.66282 25.6406 5.62657 25.4075 5.48844 25.2344L2.98844 22.1094C2.84532 21.93 2.61532 21.8425 2.39032 21.8844C2.16532 21.9244 1.97969 22.085 1.90719 22.3019L0.657191 26.0519C0.587816 26.26 0.632191 26.4887 0.774691 26.6556C0.895316 26.7962 1.06907 26.875 1.25032 26.875C1.28469 26.875 1.31844 26.8725 1.35344 26.8662V26.8662ZM2.72969 23.7875L3.84657 25.1837L2.17157 25.4631L2.72969 23.7875Z" fill="#101828"/>
</svg>
