<svg width="40" height="40" viewBox="0 0 40 40" fill="none" xmlns="http://www.w3.org/2000/svg">
<g clip-path="url(#clip0_1_4060)">
<g clip-path="url(#clip1_1_4060)">
<path d="M11.1534 29.7712C11.0475 29.7712 10.9398 29.7507 10.8356 29.7097C5.29209 27.4923 1.70801 22.1998 1.70801 16.2292C1.70801 8.22225 8.22189 1.70837 16.2288 1.70837C24.2358 1.70837 30.7497 8.22225 30.7497 16.2292C30.7497 21.0279 28.3751 25.5226 24.3998 28.2559C24.0086 28.5258 23.479 28.425 23.2125 28.0355C22.946 27.646 23.0434 27.1147 23.4329 26.8482C26.9435 24.4361 29.0414 20.4642 29.0414 16.2292C29.0414 9.16354 23.2945 3.41671 16.2288 3.41671C9.16318 3.41671 3.41634 9.16354 3.41634 16.2292C3.41634 21.4977 6.57847 26.1649 11.4711 28.1243C11.9102 28.3003 12.122 28.7974 11.9461 29.2331C11.8128 29.5679 11.4933 29.7712 11.1534 29.7712Z" fill="#101828"/>
<path d="M17.083 22.2083H12.8122C12.3407 22.2083 11.958 21.8257 11.958 21.3542C11.958 20.8827 12.3407 20.5 12.8122 20.5H17.083C18.026 20.5 18.7913 19.733 18.7913 18.7917C18.7913 17.8504 18.026 17.0833 17.083 17.0833H15.3747C13.4904 17.0833 11.958 15.551 11.958 13.6667C11.958 11.7824 13.4904 10.25 15.3747 10.25H19.6455C20.117 10.25 20.4997 10.6327 20.4997 11.1042C20.4997 11.5757 20.117 11.9583 19.6455 11.9583H15.3747C14.4317 11.9583 13.6663 12.7254 13.6663 13.6667C13.6663 14.608 14.4317 15.375 15.3747 15.375H17.083C18.9673 15.375 20.4997 16.9074 20.4997 18.7917C20.4997 20.676 18.9673 22.2083 17.083 22.2083Z" fill="#101828"/>
<path d="M16.2292 11.9584C15.7577 11.9584 15.375 11.5757 15.375 11.1042V7.68754C15.375 7.21604 15.7577 6.83337 16.2292 6.83337C16.7007 6.83337 17.0833 7.21604 17.0833 7.68754V11.1042C17.0833 11.5757 16.7007 11.9584 16.2292 11.9584Z" fill="#101828"/>
<path d="M16.2292 25.625C15.7577 25.625 15.375 25.2423 15.375 24.7708V21.3542C15.375 20.8827 15.7577 20.5 16.2292 20.5C16.7007 20.5 17.0833 20.8827 17.0833 21.3542V24.7708C17.0833 25.2423 16.7007 25.625 16.2292 25.625Z" fill="#101828"/>
<path d="M0.854159 41.0001C0.572284 41.0001 0.297243 40.86 0.133243 40.6054C-0.119591 40.2074 -0.00171572 39.6795 0.394618 39.4267L19.1863 27.4684C19.5245 27.2531 19.9653 27.3009 20.2489 27.5845L26.4774 33.8131L39.5394 20.7512C39.8725 20.4181 40.414 20.4181 40.7472 20.7512C41.0803 21.0843 41.0803 21.6259 40.7472 21.959L27.0805 35.6257C26.7474 35.9588 26.2058 35.9588 25.8727 35.6257L19.5228 29.2758L1.3137 40.8668C1.17191 40.9574 1.01303 41.0001 0.854159 41.0001Z" fill="#101828"/>
<path d="M40.1455 29.0417C39.674 29.0417 39.2914 28.659 39.2914 28.1875V22.2083H33.3122C32.8407 22.2083 32.458 21.8257 32.458 21.3542C32.458 20.8827 32.8407 20.5 33.3122 20.5H40.1455C40.617 20.5 40.9997 20.8827 40.9997 21.3542V28.1875C40.9997 28.659 40.617 29.0417 40.1455 29.0417Z" fill="#101828"/>
</g>
</g>
<defs>
<clipPath id="clip0_1_4060">
<rect width="40" height="40" fill="white"/>
</clipPath>
<clipPath id="clip1_1_4060">
<rect width="41" height="41" fill="white"/>
</clipPath>
</defs>
</svg>
