<svg width="46" height="46" viewBox="0 0 46 46" fill="none" xmlns="http://www.w3.org/2000/svg">
<path d="M26.9785 43.0361H19.5426C19.2183 43.0362 18.8973 42.9707 18.599 42.8434C18.3007 42.7161 18.0313 42.5298 17.807 42.2956C17.5827 42.0614 17.4081 41.7842 17.2938 41.4807C17.1795 41.1772 17.1278 40.8537 17.1419 40.5297V35.5287C17.1419 35.3639 17.2074 35.2058 17.324 35.0892C17.4406 34.9726 17.5987 34.9071 17.7635 34.9071C17.9284 34.9071 18.0865 34.9726 18.2031 35.0892C18.3197 35.2058 18.3852 35.3639 18.3852 35.5287V40.5297C18.3718 40.6901 18.3917 40.8516 18.4438 41.0039C18.4958 41.1562 18.5787 41.2962 18.6874 41.4149C18.7961 41.5337 18.9282 41.6286 19.0754 41.6939C19.2226 41.7591 19.3816 41.7932 19.5426 41.7941H26.9785C27.3449 41.8041 27.7027 41.6818 27.9863 41.4496C28.27 41.2174 28.4606 40.8909 28.5232 40.5297V35.5287C28.5232 35.3639 28.5887 35.2058 28.7053 35.0892C28.8218 34.9726 28.9799 34.9071 29.1448 34.9071C29.3097 34.9071 29.4678 34.9726 29.5844 35.0892C29.7009 35.2058 29.7664 35.3639 29.7664 35.5287V40.5297C29.7098 41.2245 29.3894 41.8713 28.871 42.3374C28.3525 42.8035 27.6754 43.0534 26.9785 43.0361Z" fill="black"/>
<path d="M28.6178 36.15H18.2914C17.9996 36.1483 17.7177 36.0444 17.4946 35.8565C17.2714 35.6685 17.1212 35.4084 17.0699 35.1212C16.5488 32.6786 15.366 30.4264 13.651 28.6109C12.004 26.7277 10.9342 24.4099 10.5697 21.9347C10.2051 19.4595 10.5612 16.9317 11.5953 14.6536C12.6294 12.3754 14.2978 10.4433 16.4009 9.08831C18.5041 7.73329 20.953 7.0127 23.4549 7.0127C25.9568 7.0127 28.4057 7.73329 30.5088 9.08831C32.612 10.4433 34.2804 12.3754 35.3145 14.6536C36.3486 16.9317 36.7046 19.4595 36.3401 21.9347C35.9755 24.4099 34.9058 26.7277 33.2588 28.6109C31.5431 30.4263 30.3597 32.6785 29.838 35.1212C29.7868 35.4082 29.6367 35.6682 29.4138 35.8561C29.1909 36.044 28.9093 36.148 28.6178 36.15ZM23.4465 8.26152C21.1847 8.26224 18.971 8.91429 17.07 10.1397C15.169 11.3652 13.661 13.1121 12.7265 15.1718C11.792 17.2315 11.4703 19.5167 11.8001 21.7543C12.1298 23.9919 13.097 26.0872 14.5859 27.7898C16.4507 29.7729 17.7332 32.2314 18.2926 34.8955L28.6115 34.9067C29.1731 32.239 30.4576 29.7771 32.3245 27.7904C33.7705 26.1371 34.7253 24.1123 35.0811 21.9449C35.4368 19.7775 35.1793 17.5537 34.3376 15.5249C33.4959 13.4962 32.1035 11.7432 30.3179 10.4642C28.5323 9.18519 26.4246 8.43105 24.2328 8.287C23.9701 8.27043 23.708 8.26193 23.4465 8.26152Z" fill="black"/>
<path d="M23.4541 45.299C22.7045 45.2979 21.9859 44.9995 21.4559 44.4692C20.9259 43.939 20.6278 43.2203 20.627 42.4706C20.6251 42.3 20.6884 42.1351 20.8039 42.0096C20.9194 41.884 21.0785 41.8073 21.2486 41.7949H25.6621C25.827 41.7949 25.9851 41.8604 26.1017 41.977C26.2183 42.0936 26.2837 42.2517 26.2837 42.4165C26.2889 42.7921 26.2197 43.1649 26.0799 43.5135C25.9402 43.8621 25.7328 44.1796 25.4697 44.4476C25.2067 44.7156 24.8931 44.9288 24.5471 45.0749C24.2012 45.2211 23.8297 45.2972 23.4541 45.299ZM21.9753 43.0382C22.0901 43.3375 22.2929 43.5949 22.5571 43.7765C22.8212 43.9581 23.1342 44.0553 23.4547 44.0553C23.7753 44.0553 24.0883 43.9581 24.3524 43.7765C24.6166 43.5949 24.8194 43.3375 24.9342 43.0382H21.9753Z" fill="black"/>
<path d="M16.9078 38.8876C16.7483 38.8876 16.5949 38.8263 16.4794 38.7164C16.3638 38.6065 16.2949 38.4563 16.2869 38.297C16.2789 38.1378 16.3325 37.9815 16.4365 37.8606C16.5405 37.7397 16.687 37.6633 16.8457 37.6474L29.8419 36.3159C29.9245 36.305 30.0084 36.3108 30.0886 36.3329C30.1689 36.3551 30.2439 36.3931 30.3092 36.4448C30.3744 36.4965 30.4287 36.5607 30.4687 36.6338C30.5086 36.7068 30.5335 36.7871 30.5418 36.87C30.5502 36.9528 30.5418 37.0365 30.5171 37.116C30.4925 37.1956 30.4522 37.2693 30.3985 37.333C30.3448 37.3966 30.2789 37.4488 30.2046 37.4865C30.1304 37.5242 30.0493 37.5466 29.9662 37.5523L16.97 38.8838C16.9494 38.8862 16.9286 38.8875 16.9078 38.8876Z" fill="black"/>
<path d="M17.0041 41.4422C16.8392 41.4505 16.6778 41.3929 16.5554 41.2821C16.433 41.1714 16.3596 41.0166 16.3514 40.8517C16.3431 40.6868 16.4007 40.5254 16.5115 40.403C16.6222 40.2806 16.777 40.2072 16.9419 40.199L29.8424 38.8774C29.925 38.8665 30.0089 38.8723 30.0891 38.8944C30.1694 38.9166 30.2444 38.9546 30.3097 39.0063C30.3749 39.058 30.4292 39.1222 30.4692 39.1953C30.5091 39.2683 30.534 39.3487 30.5423 39.4315C30.5507 39.5143 30.5423 39.598 30.5176 39.6776C30.493 39.7571 30.4527 39.8309 30.399 39.8945C30.3453 39.9581 30.2794 40.0104 30.2051 40.048C30.1309 40.0857 30.0498 40.1081 29.9667 40.1138L17.0675 41.4391C17.0464 41.4414 17.0252 41.4424 17.0041 41.4422Z" fill="black"/>
<path d="M23.4048 5.57509C23.24 5.57509 23.0818 5.5096 22.9653 5.39303C22.8487 5.27645 22.7832 5.11834 22.7832 4.95347V2.40482C22.7832 2.23996 22.8487 2.08185 22.9653 1.96527C23.0818 1.8487 23.24 1.7832 23.4048 1.7832C23.5697 1.7832 23.7278 1.8487 23.8444 1.96527C23.961 2.08185 24.0264 2.23996 24.0264 2.40482V4.95347C24.0264 5.11834 23.961 5.27645 23.8444 5.39303C23.7278 5.5096 23.5697 5.57509 23.4048 5.57509Z" fill="black"/>
<path d="M15.9392 7.60144C15.8298 7.60166 15.7224 7.57304 15.6277 7.51847C15.5329 7.4639 15.4543 7.38531 15.3996 7.29063L14.1271 5.08511C14.046 4.94242 14.0246 4.77342 14.0676 4.615C14.1106 4.45659 14.2145 4.32161 14.3567 4.23954C14.4989 4.15746 14.6677 4.13494 14.8264 4.1769C14.9851 4.21886 15.1208 4.32188 15.2038 4.46349L16.4769 6.66901C16.5314 6.76346 16.5601 6.8706 16.5601 6.97966C16.5602 7.08872 16.5315 7.19587 16.477 7.29035C16.4225 7.38483 16.3442 7.46332 16.2497 7.51792C16.1553 7.57252 16.0482 7.60133 15.9392 7.60144Z" fill="black"/>
<path d="M10.4847 13.0905C10.3756 13.0907 10.2683 13.062 10.1739 13.0072L7.96962 11.7335C7.89635 11.694 7.83174 11.6403 7.77962 11.5754C7.7275 11.5106 7.68893 11.4359 7.66621 11.3558C7.64348 11.2758 7.63706 11.192 7.64732 11.1094C7.65758 11.0268 7.68432 10.9472 7.72594 10.8751C7.76757 10.8031 7.82323 10.7401 7.88964 10.69C7.95605 10.6398 8.03185 10.6035 8.11255 10.5832C8.19324 10.5629 8.27719 10.559 8.35942 10.5718C8.44165 10.5845 8.52048 10.6137 8.59125 10.6574L10.7961 11.9305C10.9146 11.9989 11.0072 12.1046 11.0596 12.231C11.112 12.3574 11.1212 12.4976 11.0857 12.6297C11.0503 12.7619 10.9723 12.8787 10.8637 12.962C10.7552 13.0453 10.6222 13.0905 10.4853 13.0905H10.4847Z" fill="black"/>
<path d="M8.50719 20.5704H5.95854C5.79367 20.5704 5.63556 20.5049 5.51898 20.3883C5.40241 20.2717 5.33691 20.1136 5.33691 19.9488C5.33691 19.7839 5.40241 19.6258 5.51898 19.5092C5.63556 19.3926 5.79367 19.3271 5.95854 19.3271H8.50719C8.67205 19.3271 8.83016 19.3926 8.94674 19.5092C9.06332 19.6258 9.12881 19.7839 9.12881 19.9488C9.12881 20.1136 9.06332 20.2717 8.94674 20.3883C8.83016 20.5049 8.67205 20.5704 8.50719 20.5704Z" fill="black"/>
<path d="M8.3296 29.3112C8.19277 29.3112 8.05976 29.266 7.9512 29.1827C7.84264 29.0994 7.76461 28.9826 7.72919 28.8505C7.69377 28.7183 7.70296 28.5781 7.75532 28.4517C7.80768 28.3253 7.90029 28.2197 8.01879 28.1512L10.2243 26.8782C10.295 26.8373 10.3731 26.8109 10.4541 26.8002C10.5351 26.7896 10.6173 26.795 10.6962 26.8161C10.7751 26.8373 10.849 26.8738 10.9138 26.9235C10.9786 26.9733 11.0329 27.0353 11.0738 27.106C11.1146 27.1767 11.1411 27.2548 11.1517 27.3358C11.1623 27.4167 11.1569 27.499 11.1358 27.5779C11.1146 27.6568 11.0781 27.7307 11.0284 27.7955C10.9787 27.8603 10.9167 27.9146 10.8459 27.9554L8.64041 29.2285C8.54586 29.2829 8.43866 29.3114 8.3296 29.3112Z" fill="black"/>
<path d="M30.9696 7.60144C30.8606 7.60133 30.7534 7.57252 30.659 7.51792C30.5646 7.46331 30.4862 7.38483 30.4318 7.29035C30.3773 7.19587 30.3486 7.08872 30.3486 6.97966C30.3487 6.87059 30.3774 6.76346 30.4319 6.66901L31.7025 4.46349C31.7855 4.32188 31.9212 4.21886 32.0799 4.1769C32.2386 4.13494 32.4074 4.15746 32.5496 4.23954C32.6917 4.32161 32.7957 4.45659 32.8387 4.615C32.8817 4.77342 32.8603 4.94242 32.7792 5.08511L31.5061 7.29063C31.4517 7.38485 31.3735 7.46315 31.2794 7.51769C31.1852 7.57223 31.0784 7.60111 30.9696 7.60144Z" fill="black"/>
<path d="M36.4273 13.0905C36.2904 13.0905 36.1574 13.0453 36.0489 12.962C35.9403 12.8787 35.8623 12.7619 35.8268 12.6297C35.7914 12.4976 35.8006 12.3574 35.853 12.231C35.9053 12.1046 35.9979 11.9989 36.1164 11.9305L38.3213 10.6574C38.3921 10.6137 38.4709 10.5845 38.5532 10.5718C38.6354 10.559 38.7193 10.5629 38.8 10.5832C38.8807 10.6035 38.9565 10.6398 39.0229 10.69C39.0894 10.7401 39.145 10.8031 39.1866 10.8751C39.2283 10.9472 39.255 11.0268 39.2653 11.1094C39.2755 11.192 39.2691 11.2758 39.2464 11.3558C39.2237 11.4359 39.1851 11.5106 39.133 11.5754C39.0808 11.6403 39.0162 11.694 38.943 11.7335L36.7381 13.0072C36.6437 13.062 36.5364 13.0907 36.4273 13.0905Z" fill="black"/>
<path d="M40.9476 20.5704H38.399C38.2341 20.5704 38.076 20.5049 37.9594 20.3883C37.8428 20.2717 37.7773 20.1136 37.7773 19.9488C37.7773 19.7839 37.8428 19.6258 37.9594 19.5092C38.076 19.3926 38.2341 19.3271 38.399 19.3271H40.9476C41.1125 19.3271 41.2706 19.3926 41.3872 19.5092C41.5038 19.6258 41.5692 19.7839 41.5692 19.9488C41.5692 20.1136 41.5038 20.2717 41.3872 20.3883C41.2706 20.5049 41.1125 20.5704 40.9476 20.5704Z" fill="black"/>
<path d="M38.5791 29.3112C38.47 29.3112 38.3629 29.2827 38.2683 29.2285L36.064 27.9554C35.9933 27.9146 35.9313 27.8603 35.8815 27.7955C35.8318 27.7307 35.7953 27.6568 35.7742 27.5779C35.753 27.499 35.7476 27.4167 35.7582 27.3358C35.7689 27.2548 35.7954 27.1767 35.8362 27.106C35.877 27.0353 35.9313 26.9733 35.9961 26.9235C36.0609 26.8738 36.1348 26.8373 36.2137 26.8161C36.2926 26.795 36.3749 26.7896 36.4558 26.8002C36.5368 26.8109 36.6149 26.8373 36.6856 26.8782L38.8899 28.1512C39.0084 28.2197 39.101 28.3253 39.1534 28.4517C39.2057 28.5781 39.2149 28.7183 39.1795 28.8505C39.1441 28.9826 39.066 29.0994 38.9575 29.1827C38.8489 29.266 38.7159 29.3112 38.5791 29.3112Z" fill="black"/>
<path d="M20.7752 36.1508C20.635 36.1507 20.4989 36.1032 20.3891 36.0159C20.2793 35.9287 20.2022 35.8069 20.1704 35.6703L17.1568 22.74C17.1313 22.6306 17.136 22.5164 17.1703 22.4094C17.2046 22.3025 17.2672 22.2068 17.3515 22.1326C17.4357 22.0584 17.5386 22.0084 17.649 21.9879C17.7594 21.9675 17.8733 21.9773 17.9786 22.0164L20.7957 23.0626L23.1324 21.6503C23.2295 21.5916 23.3407 21.5605 23.4541 21.5605C23.5675 21.5605 23.6788 21.5916 23.7758 21.6503L26.1131 23.0626L28.9278 22.0164C29.0331 21.9773 29.147 21.9675 29.2574 21.9879C29.3678 22.0084 29.4706 22.0584 29.5549 22.1326C29.6392 22.2068 29.7018 22.3025 29.7361 22.4094C29.7703 22.5164 29.775 22.6306 29.7496 22.74L26.7384 35.6697C26.701 35.8303 26.6013 35.9694 26.4613 36.0565C26.3213 36.1436 26.1525 36.1715 25.9919 36.134C25.8313 36.0966 25.6922 35.9969 25.6051 35.8569C25.518 35.7169 25.4901 35.548 25.5275 35.3875L28.2763 23.5835L26.2648 24.3294C26.1769 24.3617 26.083 24.3739 25.9898 24.3651C25.8967 24.3563 25.8067 24.3267 25.7264 24.2785L23.4538 22.909L21.1824 24.2816C21.1023 24.3301 21.0123 24.3598 20.9191 24.3687C20.8259 24.3775 20.7318 24.3651 20.6441 24.3326L18.6319 23.5866L21.3838 35.3881C21.421 35.5487 21.393 35.7175 21.3058 35.8573C21.2186 35.9972 21.0794 36.0968 20.9188 36.134C20.8717 36.145 20.8236 36.1506 20.7752 36.1508Z" fill="black"/>
</svg>
