<svg width="46" height="48" viewBox="0 0 46 48" fill="none" xmlns="http://www.w3.org/2000/svg">
<path d="M37.4346 24.8213C37.0527 24.7511 36.6863 25.004 36.6162 25.386C36.5462 25.7679 36.7991 26.1343 37.181 26.2043C41.1551 26.9331 44.0395 30.3964 44.0395 34.4393C44.0395 38.5032 41.1289 41.8996 37.2831 42.6547C37.2755 42.6559 37.2678 42.6563 37.2602 42.6577C36.7318 42.7599 36.1957 42.8118 35.667 42.8118C31.0504 42.8118 27.2945 39.0559 27.2945 34.4393C27.2945 30.3437 30.2442 26.921 34.1531 26.2043C34.535 26.1343 34.7878 25.7679 34.7178 25.386C34.6478 25.004 34.2808 24.7509 33.8995 24.8213C31.6584 25.2322 29.7155 26.3889 28.3036 28.0056L23.9318 26.3124V23.8723C25.5161 22.6595 26.6085 20.8367 26.8565 18.7576C28.7395 18.6741 30.1415 17.1675 30.1415 15.3763C30.1415 14.5463 29.8365 13.7547 29.2945 13.1437V10.0577C29.2946 4.51181 24.7828 0 19.2371 0C13.6915 0 9.17955 4.51181 9.17955 10.0576V13.2234C8.6313 13.8293 8.3329 14.58 8.3329 15.3762C8.3329 17.1654 9.73202 18.6738 11.6174 18.7574C11.8645 20.8496 12.9687 22.7482 14.7079 23.9901V26.3123L4.82721 30.143C4.8228 30.1447 4.8184 30.1464 4.81399 30.1482C4.64009 30.2197 0.553711 31.9546 0.553711 36.7308V46.4072C0.553711 47.2854 1.26818 48 2.14652 48C2.58246 48 36.0484 48 36.5117 48C37.3857 48 38.0968 47.289 38.0968 46.4149V43.9127C42.3173 42.8295 45.4458 38.9931 45.4458 34.4395C45.4458 29.7174 42.0765 25.6724 37.4346 24.8213ZM25.9885 28.6169L23.4554 33.6934C23.4211 33.669 22.7856 33.2175 20.338 31.4792C22.1352 29.2608 21.5333 30.0037 23.4525 27.6347L25.9885 28.6169ZM21.1338 33.7696L20.4096 34.8596H18.2358L17.5117 33.7696L19.3227 32.4833L21.1338 33.7696ZM16.1143 26.5383V24.7833C17.0645 25.192 18.1916 25.4306 19.3368 25.4306C20.4403 25.4306 21.5331 25.1889 22.5256 24.7258V26.5449L19.3226 30.4986L16.1143 26.5383ZM28.0551 16.8618C27.7354 17.1367 27.342 17.3005 26.9122 17.3432V13.4098C28.7131 13.5842 29.3418 15.7552 28.0551 16.8618ZM11.5624 17.3432C10.4813 17.2361 9.73934 16.3703 9.73934 15.3763C9.73934 14.3797 10.6046 13.5988 11.5624 13.4418V17.3432ZM11.5854 12.0208C11.2577 12.0507 10.8682 12.1475 10.5859 12.2574V10.0576C10.5859 5.28731 14.4668 1.40634 19.2371 1.40634C24.0072 1.40634 27.8883 5.28722 27.8883 10.0576V12.1957C27.5781 12.0854 27.2507 12.0186 26.9122 11.9985C26.9122 11.1534 27.0149 11.3939 24.565 8.76553C24.3691 8.55534 24.1393 8.247 23.6533 8.14491C23.3154 8.07384 22.9526 8.13413 22.6446 8.33541C19.8815 10.1404 16.4141 11.1536 13.0835 10.9354C12.2696 10.8817 11.7108 11.3445 11.5854 12.0208ZM12.9687 17.8553C12.9687 17.2664 12.9687 12.9485 12.9687 12.3376C16.5468 12.5772 20.3219 11.518 23.3672 9.54291C24.6379 10.9082 25.3214 11.6167 25.5059 11.8544C25.5059 18.8685 25.5075 17.6204 25.502 18.0096C25.42 21.3244 22.7025 24.0243 19.3368 24.0243C15.5924 24.0244 12.9687 21.1374 12.9687 17.8553ZM15.1886 27.6365L18.3039 31.4817C17.289 32.2025 15.7179 33.3186 15.1898 33.6936L12.6567 28.6171L15.1886 27.6365ZM8.46949 46.5938V38.2298C8.46949 37.8414 8.15477 37.5266 7.76637 37.5266C7.37796 37.5266 7.06324 37.8414 7.06324 38.2298V46.5938H2.14652C2.04368 46.5938 1.96005 46.51 1.96005 46.4073V36.731C1.96005 32.948 5.15524 31.5314 5.34443 31.451L11.3394 29.1268L13.9766 34.4121C13.9766 34.4121 13.9766 34.4121 13.9766 34.4122C14.1491 34.7576 14.4627 35.0094 14.8373 35.1031C15.5226 35.2745 15.9307 34.8923 16.3644 34.5844L17.119 35.7201L15.2786 46.5938H8.46949ZM30.1815 46.5937H23.3668L22.7357 42.8646C22.671 42.4818 22.3092 42.2243 21.9251 42.2886C21.5423 42.3533 21.2845 42.7163 21.3492 43.0992L21.9407 46.5937H16.705L18.453 36.2659H20.1927L20.7939 39.8177C20.8586 40.2006 21.221 40.4585 21.6045 40.3937C21.9874 40.3289 22.2452 39.9659 22.1804 39.5831L21.5266 35.7201L22.2812 34.5844L22.7239 34.8988C23.3844 35.368 24.3074 35.1362 24.6687 34.4123C24.6688 34.4123 24.6688 34.4123 24.6688 34.4123L27.3058 29.1273L27.4258 29.1737C26.4484 30.7029 25.8883 32.5232 25.8883 34.4396C25.8883 37.8001 27.5924 40.7699 30.1816 42.5308V46.5937H30.1815ZM36.6907 46.415C36.6907 46.5136 36.6105 46.5938 36.5119 46.5938H31.5879V43.3257C32.8301 43.8983 34.2119 44.2184 35.6672 44.2184C36.0129 44.2184 36.3542 44.2001 36.6908 44.165V46.415H36.6907Z" fill="#101828"/>
<path d="M38.9951 32.3618C38.724 32.0837 38.279 32.0779 38.0007 32.349L35.2363 35.0436L34.0782 33.9085C33.8009 33.6367 33.3557 33.6411 33.0838 33.9185C32.812 34.1958 32.8164 34.641 33.0937 34.9129L34.7427 36.5289C34.8794 36.6629 35.0571 36.7299 35.2349 36.7299C35.412 36.7299 35.5891 36.6634 35.7257 36.5303L38.9823 33.3561C39.2604 33.085 39.266 32.6399 38.9951 32.3618Z" fill="#101828"/>
<path d="M35.6678 27.1338C31.6395 27.1338 28.3623 30.411 28.3623 34.4393C28.3623 38.4675 31.6395 41.7447 35.6678 41.7447C39.696 41.7447 42.9732 38.4675 42.9732 34.4393C42.9732 30.411 39.696 27.1338 35.6678 27.1338ZM35.6678 40.3383C32.415 40.3383 29.7686 37.6919 29.7686 34.4392C29.7686 31.1864 32.4149 28.54 35.6678 28.54C38.9205 28.54 41.5669 31.1864 41.5669 34.4392C41.5669 37.6919 38.9205 40.3383 35.6678 40.3383Z" fill="#101828"/>
</svg>
