<svg width="46" height="46" viewBox="0 0 46 46" fill="none" xmlns="http://www.w3.org/2000/svg">
<path d="M37.3308 40.0641L35.6132 34.9106C35.013 33.1114 33.4816 31.7834 31.6149 31.4436L26.6566 30.5414V30.157C27.5194 29.6562 28.2703 28.9863 28.8683 28.1931H30.3662C31.5934 28.1931 32.592 27.1945 32.592 25.9673V17.0641C32.592 11.7459 28.2651 7.41895 22.9469 7.41895C17.6287 7.41895 13.3017 11.7459 13.3017 17.0641V22.2577C13.3017 23.6881 14.3189 24.8848 15.6677 25.1638C16.084 27.2961 17.4165 29.1005 19.2372 30.157V30.5414L14.2781 31.4436C12.4121 31.7834 10.88 33.1114 10.2806 34.9106L9.98378 35.8017L7.45674 33.2747C7.16739 32.9853 7.16739 32.5142 7.45674 32.2248L10.3874 29.2949L4.88668 23.7942L1.57468 27.1062C0.59384 28.087 0.0537109 29.3914 0.0537109 30.7788C0.0537109 32.1662 0.59384 33.4698 1.57468 34.4506L11.6019 44.4779C12.5828 45.4587 13.8871 45.9996 15.2745 45.9996C16.6619 45.9996 17.9655 45.4587 18.9234 44.5001L22.5373 41.1889L21.4103 40.0641H37.3308ZM31.1082 25.9673C31.1082 26.3769 30.775 26.7093 30.3662 26.7093H29.7423C29.9574 26.2188 30.1207 25.7017 30.226 25.1638C30.5436 25.0978 30.8359 24.9717 31.1082 24.8129V25.9673ZM30.3662 23.5353V20.98C30.8077 21.2375 31.1082 21.7108 31.1082 22.2577C31.1082 22.8045 30.8077 23.2778 30.3662 23.5353ZM15.5275 23.5353C15.0861 23.2778 14.7856 22.8045 14.7856 22.2577C14.7856 21.7108 15.0861 21.2375 15.5275 20.98V23.5353ZM15.5275 18.548V19.3953C15.2634 19.4643 15.0156 19.5681 14.7856 19.7024V17.0641C14.7856 12.5643 18.447 8.90282 22.9469 8.90282C27.4467 8.90282 31.1082 12.5643 31.1082 17.0641V19.7024C30.8782 19.5681 30.6304 19.4635 30.3662 19.3953V18.548H29.6243C27.4304 18.548 25.3678 17.6933 23.8157 16.1419L22.9469 15.2731L22.0781 16.1419C20.5259 17.6933 18.4634 18.548 16.2695 18.548H15.5275ZM17.0114 23.7415V20.0037C19.2394 19.836 21.3168 18.9167 22.9469 17.3668C24.5769 18.9167 26.6543 19.8367 28.8824 20.0037V23.7415C28.8824 24.8233 28.5871 25.8353 28.0796 26.7093H22.9469V28.1931H26.8598C25.8137 29.1139 24.4463 29.677 22.9469 29.677C19.6742 29.677 17.0114 27.0142 17.0114 23.7415ZM25.1727 30.8188V30.8537L22.9469 33.0795L20.7211 30.8537V30.8188C21.4244 31.0399 22.1716 31.1609 22.9469 31.1609C23.7222 31.1609 24.4693 31.0399 25.1727 30.8188ZM11.6873 35.3795C12.1154 34.0945 13.2097 33.1456 14.543 32.9022L19.7291 31.9599L22.9469 35.1777L26.1639 31.9607L31.3493 32.9029C32.6826 33.1463 33.7769 34.0945 34.205 35.3803L35.2727 38.5802H19.9265L17.0366 35.6904L13.8255 38.5951C13.5458 38.8763 13.0569 38.8763 12.7764 38.5951L11.156 36.9747L11.6873 35.3795ZM4.88594 25.8924L8.28846 29.2949L7.48271 30.1007L4.0802 26.6981L4.88594 25.8924ZM17.8958 43.4303C17.1954 44.1292 16.2635 44.5157 15.273 44.5157C14.2826 44.5157 13.3507 44.1292 12.6496 43.4288L2.62229 33.4023C1.9219 32.7019 1.5361 31.77 1.5361 30.7795C1.5361 29.7883 1.9219 28.8564 2.62229 28.156L3.03036 27.748L6.43287 31.1505L6.40616 31.1772C5.53884 32.0453 5.53884 33.4572 6.40616 34.3252L11.7266 39.6457C12.1473 40.0656 12.7059 40.2978 13.301 40.2978C13.896 40.2978 14.4547 40.0663 14.8479 39.6716L14.9036 39.6219L18.3217 43.04L17.8958 43.4303ZM19.4167 42.0354L16.0061 38.6248L16.9862 37.7389L20.3909 41.1436L19.4167 42.0354Z" fill="black"/>
<path d="M43.7213 0H33.3342C32.107 0 31.1084 0.998645 31.1084 2.22581V8.16129C31.1084 9.38845 32.107 10.3871 33.3342 10.3871H35.3159L34.5488 14.8617L41.7084 10.3871H43.7213C44.9485 10.3871 45.9471 9.38845 45.9471 8.16129V2.22581C45.9471 0.998645 44.9485 0 43.7213 0ZM44.4632 8.16129C44.4632 8.5701 44.1301 8.90323 43.7213 8.90323H41.2826L36.5705 11.848L37.0758 8.90323H33.3342C32.9254 8.90323 32.5923 8.5701 32.5923 8.16129V2.22581C32.5923 1.817 32.9254 1.48387 33.3342 1.48387H43.7213C44.1301 1.48387 44.4632 1.817 44.4632 2.22581V8.16129Z" fill="black"/>
<path d="M42.9794 2.96777H34.0762V4.45164H42.9794V2.96777Z" fill="black"/>
<path d="M40.0117 5.93555H34.0762V7.41942H40.0117V5.93555Z" fill="black"/>
<path d="M42.979 5.93555H41.4951V7.41942H42.979V5.93555Z" fill="black"/>
<path d="M22.9466 2.22559C13.2525 2.22559 4.90202 8.9312 2.73112 18.2848L1.32515 15.941L0.0527344 16.7045L2.66064 21.05L7.00615 18.4421L6.2427 17.1697L4.23206 18.376C6.3347 9.8193 14.0293 3.70946 22.9466 3.70946C24.8957 3.70946 26.8188 3.99881 28.6625 4.5701L29.1017 3.15301C27.1156 2.5372 25.0448 2.22559 22.9466 2.22559Z" fill="black"/>
<path d="M45.5861 16.4282L41.2406 13.8203L38.6335 18.1666L39.9059 18.93L41.2043 16.7658C41.8876 18.7653 42.2371 20.8568 42.2371 23.0003C42.2371 27.4126 40.7087 31.7262 37.9346 35.1458L39.0868 36.0806C42.0753 32.3976 43.7209 27.7516 43.7209 23.0003C43.7209 20.7307 43.3551 18.5145 42.6421 16.3926L44.8227 17.7006L45.5861 16.4282Z" fill="black"/>
</svg>
