<svg width="44" height="44" viewBox="0 0 44 44" fill="none" xmlns="http://www.w3.org/2000/svg">
<path d="M1.37496 13.7499H42.6249C43.3839 13.7499 43.9999 13.1339 43.9999 12.375C43.9999 11.6159 43.3838 11 42.6249 11H1.37496C0.615934 11 0 11.616 0 12.375C0 13.1339 0.616048 13.7499 1.37496 13.7499Z" fill="#101828"/>
<path d="M42.6249 20.625H1.37496C0.615934 20.625 0 21.241 0 22C0 22.7589 0.616048 23.3749 1.37496 23.3749H42.6249C43.3839 23.3749 43.9999 22.7589 43.9999 22C43.9999 21.241 43.3839 20.625 42.6249 20.625Z" fill="#101828"/>
<path d="M42.6249 30.25H15.125C14.3659 30.25 13.75 30.866 13.75 31.625C13.75 32.384 14.366 32.9999 15.125 32.9999H42.6249C43.384 32.9999 43.9999 32.3839 43.9999 31.625C44 30.8659 43.384 30.25 42.6249 30.25Z" fill="#101828"/>
</svg>
