<svg width="43" height="43" viewBox="0 0 43 43" fill="none" xmlns="http://www.w3.org/2000/svg">
<path d="M31.9592 30.4317C31.7453 30.4317 31.5313 30.3498 31.3684 30.1868L28.8369 27.6553C28.5101 27.3286 28.5101 26.8004 28.8369 26.4736C29.1637 26.1468 29.6918 26.1468 30.0186 26.4736L32.5501 29.0051C32.8769 29.3318 32.8769 29.86 32.5501 30.1868C32.3863 30.3498 32.1732 30.4317 31.9592 30.4317Z" fill="#101828"/>
<path d="M29.596 32.795C29.382 32.795 29.1681 32.7131 29.0051 32.5501L26.4736 30.0186C26.1468 29.6918 26.1468 29.1637 26.4736 28.8369C26.8004 28.5101 27.3286 28.5101 27.6554 28.8369L30.1868 31.3684C30.5136 31.6951 30.5136 32.2233 30.1868 32.5501C30.023 32.7131 29.8091 32.795 29.596 32.795Z" fill="#101828"/>
<path d="M16.5506 29.0108C16.5497 29.0108 16.5497 29.0108 16.5506 29.0108C12.5983 29.0108 8.83327 27.1521 6.47981 24.0389C4.06617 20.8464 3.37083 16.7637 4.57347 12.8391C5.77695 8.90939 8.64189 5.91408 12.4337 4.61951C13.7132 4.18241 15.042 3.96094 16.3826 3.96094C23.2332 3.96094 29.0216 9.69583 29.0216 16.4854C29.0216 21.7674 25.5332 26.6473 20.5379 28.3522C19.2575 28.7893 17.9153 29.0108 16.5506 29.0108ZM16.3817 5.63243C15.2251 5.63243 14.0784 5.82382 12.9727 6.20074C9.69409 7.3198 7.21527 9.91814 6.17058 13.328C5.12674 16.7345 5.72513 20.2705 7.81199 23.031C9.85121 25.7288 13.1173 27.3393 16.5489 27.3393H16.5497C17.7315 27.3393 18.8907 27.1479 19.9972 26.7701C24.3263 25.2925 27.3501 21.0637 27.3501 16.4854C27.3501 10.6018 22.3272 5.63243 16.3817 5.63243Z" fill="#101828"/>
<path d="M5.77932 40.837C3.51445 40.837 1.60059 38.9231 1.60059 36.6582C1.60059 34.3934 3.51445 32.4795 5.77932 32.4795C8.04419 32.4795 9.95806 34.3934 9.95806 36.6582C9.95806 38.9231 8.04503 40.837 5.77932 40.837ZM5.77932 34.151C4.4204 34.151 3.27208 35.2993 3.27208 36.6582C3.27208 38.0172 4.4204 39.1655 5.77932 39.1655C7.13825 39.1655 8.28656 38.0172 8.28656 36.6582C8.28656 35.2993 7.13825 34.151 5.77932 34.151Z" fill="#101828"/>
<path d="M7.346 34.5405C7.21395 34.5405 7.08023 34.5088 6.95487 34.4427C6.54702 34.2263 6.39241 33.7207 6.60803 33.3128L8.69406 29.3815C8.91052 28.9745 9.41614 28.819 9.82399 29.0346C10.2318 29.2503 10.3864 29.7567 10.1708 30.1646L8.0848 34.0959C7.9352 34.3792 7.64603 34.5405 7.346 34.5405Z" fill="#101828"/>
<path d="M5.54571 6.99112C5.32841 6.99112 5.11112 6.89919 4.96069 6.74876C4.80189 6.58997 4.70996 6.38103 4.70996 6.15538C4.70996 5.93808 4.80189 5.72079 4.96069 5.562C5.26991 5.25277 5.82986 5.25277 6.13909 5.562C6.29788 5.72079 6.38145 5.93808 6.38145 6.15538C6.38145 6.37267 6.29788 6.58997 6.13909 6.74876C5.98865 6.89919 5.77136 6.99112 5.54571 6.99112Z" fill="#101828"/>
<path d="M29.2196 25.3286C29.0675 25.3286 28.9137 25.2876 28.7758 25.2007C28.3847 24.955 28.2677 24.4385 28.5134 24.0482C31.777 18.8582 31.2898 11.97 27.3283 7.29818C22.7192 1.86165 14.4745 0.71751 8.55995 4.69399C8.17718 4.95057 7.65734 4.84944 7.39993 4.46667C7.14252 4.0839 7.24449 3.56406 7.62726 3.30665C14.2397 -1.13618 23.4521 0.14168 28.6028 6.21756C33.0298 11.4393 33.5755 19.1374 29.9283 24.9375C29.7695 25.1907 29.4979 25.3286 29.2196 25.3286Z" fill="#101828"/>
<path d="M38.2153 42.3798C37.0904 42.3798 36.0415 41.9494 35.2601 41.1688C34.9341 40.8421 34.9341 40.313 35.2601 39.9863C35.5869 39.6603 36.1159 39.6603 36.4427 39.9863C37.372 40.9173 39.0577 40.9173 39.9871 39.9863C40.4534 39.5208 40.7092 38.8914 40.7092 38.2136C40.7092 37.5359 40.4534 36.9065 39.9879 36.441C39.6611 36.1142 39.6611 35.5852 39.9879 35.2584C40.3147 34.9317 40.8437 34.9325 41.1705 35.2584C41.9519 36.0399 42.3815 37.0887 42.3815 38.2136C42.3815 39.3386 41.9511 40.3874 41.1705 41.1688C40.3891 41.9503 39.3402 42.3798 38.2153 42.3798Z" fill="#101828"/>
<path d="M33.1424 38.7079C32.9167 38.7079 32.7078 38.616 32.549 38.4572C32.3986 38.3068 32.3066 38.0895 32.3066 37.8722C32.3066 37.6465 32.3986 37.4292 32.549 37.2788C32.8582 36.9696 33.4265 36.9696 33.7358 37.2788C33.8862 37.4376 33.9781 37.6549 33.9781 37.8722C33.9781 38.0895 33.8862 38.2984 33.7358 38.4572C33.577 38.616 33.3597 38.7079 33.1424 38.7079Z" fill="#101828"/>
<path d="M35.8519 41.4138C35.6379 41.4138 35.4248 41.3319 35.261 41.1697L34.9141 40.8237C34.5874 40.4978 34.5874 39.9688 34.9133 39.642C35.2392 39.3144 35.7683 39.3152 36.0951 39.6411L36.4419 39.9871C36.7687 40.3131 36.7687 40.8421 36.4427 41.1689C36.2798 41.3319 36.0658 41.4138 35.8519 41.4138Z" fill="#101828"/>
<path d="M29.5957 35.1591C29.3818 35.1591 29.1678 35.0772 29.0049 34.9142C28.027 33.9372 28.027 32.346 29.0049 31.3681C29.3316 31.0414 29.8598 31.0414 30.1866 31.3681C30.5134 31.6949 30.5134 32.2231 30.1866 32.5499C30.0286 32.7078 29.9417 32.9176 29.9417 33.1407C29.9417 33.3639 30.0286 33.5745 30.1866 33.7325C30.5134 34.0592 30.5134 34.5874 30.1866 34.9142C30.0228 35.078 29.8088 35.1591 29.5957 35.1591Z" fill="#101828"/>
<path d="M30.7775 36.3407C30.5635 36.3407 30.3496 36.2588 30.1866 36.0959L29.0048 34.9141C28.6781 34.5874 28.6781 34.0592 29.0048 33.7324C29.3316 33.4056 29.8598 33.4056 30.1866 33.7324L31.3683 34.9141C31.6951 35.2409 31.6951 35.7691 31.3683 36.0959C31.2045 36.2597 30.9906 36.3407 30.7775 36.3407Z" fill="#101828"/>
<path d="M34.3233 30.4318C34.1094 30.4318 33.8954 30.3499 33.7325 30.1869C33.4174 29.8718 32.8666 29.871 32.5499 30.1869C32.2231 30.5137 31.6949 30.5137 31.3681 30.1869C31.0414 29.8601 31.0414 29.3319 31.3681 29.0052C32.3451 28.0273 33.9356 28.0265 34.9142 29.0052C35.241 29.3319 35.241 29.8601 34.9142 30.1869C34.7512 30.3499 34.5373 30.4318 34.3233 30.4318Z" fill="#101828"/>
<path d="M40.5788 36.687C40.3649 36.687 40.1509 36.6051 39.988 36.4422L33.7324 30.1866C33.4056 29.8598 33.4056 29.3316 33.7324 29.0048C34.0592 28.6781 34.5874 28.6781 34.9141 29.0048L41.1697 35.2604C41.4965 35.5872 41.4965 36.1154 41.1697 36.4422C41.0067 36.6051 40.7928 36.687 40.5788 36.687Z" fill="#101828"/>
<path d="M29.5957 32.795C29.3818 32.795 29.1678 32.7131 29.0048 32.5501C28.6781 32.2233 28.6781 31.6951 29.0048 31.3683L31.3683 29.0048C31.6951 28.6781 32.2233 28.6781 32.5501 29.0048C32.8769 29.3316 32.8769 29.8598 32.5501 30.1866L30.1866 32.5501C30.0228 32.7131 29.8088 32.795 29.5957 32.795Z" fill="#101828"/>
<path d="M29.4212 25.5296C29.2073 25.5296 28.9925 25.4477 28.8295 25.2847L28.6298 25.0842C28.3038 24.7574 28.3047 24.2284 28.6306 23.9016C28.9574 23.5748 29.4864 23.5765 29.8132 23.9024L30.0129 24.103C30.3389 24.4298 30.338 24.9588 30.0121 25.2856C29.8483 25.4485 29.6343 25.5296 29.4212 25.5296Z" fill="#101828"/>
<path d="M29.5436 27.7537C29.3606 27.7537 29.1767 27.6944 29.0221 27.5707C28.6611 27.2824 28.6026 26.7567 28.8909 26.3965C29.1567 26.0639 29.1299 25.585 28.8291 25.2833C28.5023 24.9565 28.5023 24.4283 28.8291 24.1015C29.1558 23.7748 29.684 23.7748 30.0108 24.1015C30.9151 25.0058 30.9945 26.4399 30.1972 27.4395C30.0325 27.6468 29.7893 27.7537 29.5436 27.7537Z" fill="#101828"/>
<path d="M26.9194 30.3808C26.6745 30.3808 26.4313 30.2738 26.2658 30.0665C25.9775 29.7063 26.0368 29.1798 26.397 28.8923C27.3172 28.1568 28.1563 27.3177 28.8917 26.3976C29.1792 26.0357 29.7058 25.978 30.066 26.2664C30.427 26.5547 30.4855 27.0804 30.1972 27.4406C29.3848 28.4577 28.4563 29.3862 27.4392 30.1986C27.2863 30.3214 27.1024 30.3808 26.9194 30.3808Z" fill="#101828"/>
<path d="M24.6932 30.2573C24.4792 30.2573 24.2661 30.1762 24.1023 30.0133L23.9017 29.8135C23.575 29.4876 23.5741 28.9585 23.9009 28.6309C24.2277 28.305 24.7567 28.3033 25.0835 28.6301L25.2841 28.8298C25.6108 29.1558 25.6117 29.6848 25.2849 30.0124C25.1211 30.1746 24.9071 30.2573 24.6932 30.2573Z" fill="#101828"/>
<path d="M25.875 30.7463C25.2306 30.7463 24.5888 30.498 24.1015 30.0108C23.7748 29.684 23.7748 29.1558 24.1015 28.8291C24.4283 28.5023 24.9565 28.5023 25.2833 28.8291C25.5841 29.1299 26.063 29.1575 26.3965 28.8909C26.7575 28.6026 27.2832 28.6619 27.5707 29.0221C27.8582 29.3823 27.7997 29.9088 27.4395 30.1963C26.9798 30.5649 26.4266 30.7463 25.875 30.7463Z" fill="#101828"/>
<path d="M10.9993 27.656C10.8673 27.656 10.7336 27.6242 10.6082 27.5582C10.2003 27.3418 10.0457 26.8361 10.2614 26.4283L14.1793 19.0461C14.395 18.6391 14.9014 18.4845 15.3093 18.6993C15.7171 18.9158 15.8717 19.4214 15.6561 19.8292L11.7381 27.2114C11.5885 27.4947 11.2985 27.656 10.9993 27.656Z" fill="#101828"/>
<path d="M16.4854 20.6641C14.2205 20.6641 12.3066 18.7502 12.3066 16.4854C12.3066 14.2205 14.2205 12.3066 16.4854 12.3066C18.7502 12.3066 20.6641 14.2205 20.6641 16.4854C20.6641 18.7502 18.7502 20.6641 16.4854 20.6641ZM16.4854 13.9781C15.1265 13.9781 13.9781 15.1265 13.9781 16.4854C13.9781 17.8443 15.1265 18.9926 16.4854 18.9926C17.8443 18.9926 18.9926 17.8443 18.9926 16.4854C18.9926 15.1265 17.8443 13.9781 16.4854 13.9781Z" fill="#101828"/>
<path d="M38.2149 15.5059C35.95 15.5059 34.0361 13.592 34.0361 11.3272C34.0361 9.0623 35.95 7.14844 38.2149 7.14844C40.4797 7.14844 42.3936 9.0623 42.3936 11.3272C42.3936 13.592 40.4797 15.5059 38.2149 15.5059ZM38.2149 8.81993C36.8559 8.81993 35.7076 9.96825 35.7076 11.3272C35.7076 12.6861 36.8559 13.8344 38.2149 13.8344C39.5738 13.8344 40.7221 12.6861 40.7221 11.3272C40.7221 9.96825 39.5738 8.81993 38.2149 8.81993Z" fill="#101828"/>
<path d="M19.7373 16.549C19.3587 16.549 19.0161 16.29 18.925 15.9063C18.8188 15.4567 19.0963 15.0071 19.5451 14.9001L27.6769 12.9695C28.1224 12.8642 28.5762 13.1409 28.6831 13.5897C28.7893 14.0393 28.5118 14.4889 28.063 14.5959L19.9312 16.5265C19.866 16.5415 19.8008 16.549 19.7373 16.549Z" fill="#101828"/>
<path d="M16.5169 32.3474C11.9512 32.3474 7.43651 30.3993 4.33505 26.7162C0.0627128 21.6415 -0.559918 14.1081 2.82151 8.39659C3.05636 7.99962 3.56951 7.86757 3.96649 8.10325C4.3643 8.33809 4.49551 8.85124 4.25983 9.24822C1.23359 14.3588 1.7902 21.0991 5.61374 25.6397C10.0791 30.9434 18.1767 32.2062 24.0478 28.5139C24.4406 28.269 24.9546 28.386 25.2003 28.7763C25.446 29.1674 25.3282 29.6831 24.9379 29.9288C22.3437 31.5593 19.4194 32.3474 16.5169 32.3474Z" fill="#101828"/>
<path d="M31.1211 13.8471C30.7425 13.8471 30.3999 13.5888 30.3088 13.2044C30.2026 12.7556 30.4801 12.3051 30.9289 12.1981L34.7691 11.2863C35.2163 11.1802 35.6684 11.4568 35.7754 11.9065C35.8815 12.3553 35.604 12.8057 35.1553 12.9127L31.315 13.8245C31.2506 13.8395 31.1855 13.8471 31.1211 13.8471Z" fill="#101828"/>
</svg>
