<svg width="43" height="51" viewBox="0 0 43 51" fill="none" xmlns="http://www.w3.org/2000/svg">
<path d="M38.4162 5.19154C38.0307 5.04511 37.599 5.23886 37.4524 5.62454C37.3058 6.01023 37.4998 6.44164 37.8854 6.58826C39.4609 7.18702 40.5194 8.7217 40.5194 10.4073C40.5194 12.6581 38.6878 14.4892 36.4364 14.4892C34.1857 14.4892 32.3545 12.658 32.3545 10.4073C32.3545 8.7216 33.4126 7.18731 34.9874 6.58936C35.3731 6.44283 35.567 6.01143 35.4207 5.62574C35.2743 5.23995 34.8428 5.04601 34.4571 5.19244C32.3058 6.00923 30.8605 8.10492 30.8605 10.4073C30.8605 11.4223 31.1344 12.3741 31.6104 13.1948L25.2561 18.1093C24.4163 17.2815 23.316 16.7183 22.0909 16.5535V11.1024C24.8138 10.736 26.9208 8.39856 26.9208 5.57703C26.9206 2.50179 24.4188 0 21.3436 0C18.2685 0 15.7667 2.50179 15.7667 5.57693C15.7667 8.39856 17.8736 10.7359 20.5966 11.1023V16.5534C19.3715 16.7182 18.2712 17.2813 17.4314 18.1092L11.0771 13.1947C11.5529 12.374 11.827 11.4223 11.827 10.4072C11.827 7.33195 9.32556 4.83006 6.25092 4.83006C3.94895 4.83006 1.85297 6.27579 1.03527 8.42745C0.888649 8.81314 1.08259 9.24455 1.46828 9.39117C1.85386 9.5376 2.28547 9.34396 2.432 8.95817C3.03075 7.38275 4.56543 6.3242 6.25102 6.3242C8.50179 6.3242 10.3329 8.15582 10.3329 10.4072C10.3329 12.658 8.50169 14.4891 6.25102 14.4891C4.56533 14.4891 3.03105 13.431 2.43309 11.8562C2.28657 11.4705 1.85516 11.2764 1.46947 11.4229C1.08378 11.5694 0.889844 12.0008 1.03617 12.3865C1.85297 14.5378 3.94865 15.9831 6.25102 15.9831C7.77375 15.9831 9.15533 15.3689 10.1627 14.3761L16.517 19.2906C16.0409 20.1115 15.7669 21.0635 15.7669 22.0787C15.7669 24.0883 16.8586 25.9406 18.5846 26.9254V33.9089H17.3186C15.7973 33.9089 14.5594 35.1472 14.5594 36.6691V40.1904C14.5594 46.1508 19.4086 51 25.369 51C28.2561 51 30.9706 49.8755 33.0124 47.8338C35.0535 45.7926 36.1775 43.0782 36.1775 40.1905V39.6197C36.1775 39.207 35.8432 38.8727 35.4305 38.8727C35.0178 38.8727 34.6834 39.207 34.6834 39.6197V40.1905C34.6834 42.679 33.7147 45.0184 31.9557 46.7773C30.1961 48.5368 27.8569 49.5059 25.3688 49.5059C20.2323 49.5059 16.0534 45.327 16.0534 40.1904V36.6692C16.0534 35.971 16.6208 35.4032 17.3184 35.4032H18.5842V36.7621L17.9979 37.3482C17.7062 37.6401 17.7062 38.113 17.9979 38.4048C18.1439 38.5506 18.3351 38.6235 18.5263 38.6235C18.7174 38.6235 18.9087 38.5506 19.0546 38.4048L19.8595 37.5998C19.9996 37.4597 20.0783 37.2697 20.0783 37.0715L20.0786 24.0915C20.0786 23.7533 20.2103 23.4355 20.4501 23.1956C20.6882 22.957 21.0055 22.8255 21.3436 22.8255C22.0412 22.8255 22.6087 23.3934 22.6087 24.0915L22.609 35.8641C22.609 36.2767 22.9434 36.6111 23.356 36.6111C23.7687 36.6111 24.1031 36.2767 24.1031 35.8641C24.1031 35.8641 24.103 30.4296 24.103 30.4292C24.1042 30.0844 24.2414 29.7627 24.4899 29.5229C24.7391 29.2824 25.0665 29.156 25.4149 29.1691C26.087 29.1931 26.6339 29.7822 26.6339 30.4825L26.6338 35.8641C26.6338 36.2767 26.9682 36.6111 27.3808 36.6111C27.7935 36.6111 28.1279 36.2767 28.1279 35.8641C28.1279 35.8641 28.128 32.6038 28.128 32.5953C28.128 32.2487 28.2655 31.9253 28.5151 31.6844C28.7644 31.444 29.0929 31.3171 29.4402 31.3306C30.1122 31.3545 30.659 31.9432 30.659 32.643L30.6587 35.8641C30.6587 36.2767 30.9931 36.6111 31.4058 36.6111C31.8184 36.6111 32.1528 36.2767 32.1528 35.8641C32.1528 35.8641 32.1531 34.6581 32.1531 34.6561C32.1531 34.3099 32.2903 33.9867 32.5393 33.7463C32.7885 33.5054 33.1142 33.3801 33.4654 33.3916C34.1369 33.4155 34.6833 34.0046 34.6833 34.7049V36.1333C34.6833 36.546 35.0177 36.8804 35.4304 36.8804C35.8431 36.8804 36.1775 36.546 36.1775 36.1333V34.7049C36.1775 33.2096 34.9846 31.9507 33.518 31.8984C33.024 31.8812 32.5446 31.9927 32.121 32.2193C31.9213 30.9174 30.8191 29.8847 29.4935 29.8375C29.0036 29.8183 28.5299 29.929 28.1093 30.1509C27.9538 28.7864 26.8496 27.7252 25.4682 27.6759C24.986 27.657 24.5187 27.7642 24.1028 27.9796V26.9255C25.8288 25.9407 26.9206 24.0884 26.9206 22.0788C26.9206 21.0636 26.6465 20.1116 26.1705 19.2908L32.5248 14.3762C33.5321 15.3691 34.9137 15.9832 36.4364 15.9832C39.5117 15.9832 42.0136 13.4818 42.0136 10.4072C42.0136 8.10522 40.5678 6.00923 38.4162 5.19154ZM17.2608 5.57693C17.2608 3.32566 19.0925 1.49414 21.3436 1.49414C23.5948 1.49414 25.4264 3.32576 25.4264 5.57693C25.4264 7.8281 23.5948 9.65962 21.3436 9.65962C19.0925 9.65962 17.2608 7.8282 17.2608 5.57693ZM24.1028 25.0843V24.0915C24.1028 22.5696 22.8651 21.3313 21.3436 21.3313C20.6057 21.3313 19.9126 21.6187 19.3929 22.1398C18.8716 22.6611 18.5844 23.3542 18.5844 24.0915V25.0843C17.7575 24.3223 17.2608 23.2369 17.2608 22.0788C17.2608 19.8275 19.0925 17.9961 21.3436 17.9961C23.5948 17.9961 25.4264 19.8276 25.4264 22.0788C25.4264 23.237 24.9299 24.3223 24.1028 25.0843Z" fill="#101828"/>
</svg>
